<svg width="256" height="256" viewBox="0 0 256 256" fill="none" xmlns="http://www.w3.org/2000/svg">
  <defs>
    <linearGradient id="bg" x1="28" y1="20" x2="228" y2="236" gradientUnits="userSpaceOnUse">
      <stop stop-color="#0F172A" />
      <stop offset="1" stop-color="#111827" />
    </linearGradient>
    <linearGradient id="line" x1="64" y1="176" x2="188" y2="80" gradientUnits="userSpaceOnUse">
      <stop stop-color="#22D3EE" />
      <stop offset="0.5" stop-color="#60A5FA" />
      <stop offset="1" stop-color="#F472B6" />
    </linearGradient>
    <linearGradient id="bar1" x1="72" y1="160" x2="96" y2="88" gradientUnits="userSpaceOnUse">
      <stop stop-color="#22D3EE" />
      <stop offset="1" stop-color="#0EA5E9" />
    </linearGradient>
    <linearGradient id="bar2" x1="116" y1="160" x2="140" y2="72" gradientUnits="userSpaceOnUse">
      <stop stop-color="#818CF8" />
      <stop offset="1" stop-color="#A855F7" />
    </linearGradient>
    <linearGradient id="bar3" x1="160" y1="160" x2="184" y2="56" gradientUnits="userSpaceOnUse">
      <stop stop-color="#F59E0B" />
      <stop offset="1" stop-color="#F97316" />
    </linearGradient>
  </defs>

  <rect x="20" y="20" width="216" height="216" rx="52" fill="url(#bg)" />
  <rect x="20" y="20" width="216" height="216" rx="52" stroke="rgba(255,255,255,0.08)" />

  <path d="M60 70H196" stroke="#334155" stroke-width="6" stroke-linecap="round" opacity="0.55" />
  <path d="M60 108H196" stroke="#334155" stroke-width="6" stroke-linecap="round" opacity="0.45" />
  <path d="M60 146H196" stroke="#334155" stroke-width="6" stroke-linecap="round" opacity="0.35" />
  <path d="M60 184H196" stroke="#334155" stroke-width="6" stroke-linecap="round" opacity="0.28" />

  <path d="M60 52V192" stroke="#475569" stroke-width="8" stroke-linecap="round" opacity="0.85" />
  <path d="M60 192H196" stroke="#475569" stroke-width="8" stroke-linecap="round" opacity="0.85" />

  <rect x="76" y="126" width="22" height="66" rx="11" fill="url(#bar1)" />
  <rect x="120" y="102" width="22" height="90" rx="11" fill="url(#bar2)" />
  <rect x="164" y="76" width="22" height="116" rx="11" fill="url(#bar3)" />

  <path d="M72 160L108 136L144 116L180 88" stroke="url(#line)" stroke-width="12" stroke-linecap="round" stroke-linejoin="round" />
  <circle cx="72" cy="160" r="9" fill="#22D3EE" />
  <circle cx="108" cy="136" r="9" fill="#38BDF8" />
  <circle cx="144" cy="116" r="9" fill="#818CF8" />
  <circle cx="180" cy="88" r="9" fill="#F472B6" />
</svg>
